<?xml version="1.0" standalone="no"?>
<!DOCTYPE svg PUBLIC "-//W3C//DTD SVG 20010904//EN"
 "http://www.w3.org/TR/2001/REC-SVG-20010904/DTD/svg10.dtd">
<svg version="1.0" xmlns="http://www.w3.org/2000/svg"
 width="700.000000pt" height="700.000000pt" viewBox="0 0 700.000000 700.000000"
 preserveAspectRatio="xMidYMid meet">
<metadata>
Created by potrace 1.14, written by Peter Selinger 2001-2017
</metadata>
<g transform="translate(0.000000,700.000000) scale(0.100000,-0.100000)"
fill="#000000" stroke="none">
<path d="M2465 6341 c-11 -4 -35 -14 -53 -24 -23 -13 -37 -15 -51 -8 -53 29
-154 23 -190 -10 -12 -11 -32 -20 -44 -19 -56 5 -95 -2 -127 -22 -25 -16 -53
-22 -97 -24 -74 -2 -141 -25 -173 -59 -16 -17 -34 -25 -57 -25 -93 0 -182 -55
-184 -113 0 -12 -2 -29 -4 -38 -1 -8 3 -32 10 -52 11 -33 10 -42 -6 -74 -26
-51 -24 -80 10 -148 22 -43 27 -63 20 -76 -22 -43 3 -118 54 -159 17 -14 20
-27 18 -69 -2 -41 4 -62 24 -97 14 -24 34 -48 45 -54 11 -6 20 -18 20 -28 0
-47 24 -94 74 -145 30 -30 63 -75 75 -99 11 -23 26 -50 33 -59 18 -22 88 -65
118 -72 16 -4 32 -20 45 -48 24 -51 56 -76 125 -98 l53 -17 -99 -66 c-55 -37
-119 -86 -143 -110 -154 -151 -244 -372 -250 -613 -3 -88 -20 -124 -85 -178
-160 -132 -260 -290 -313 -497 -33 -128 -35 -288 -5 -410 25 -99 97 -248 157
-326 34 -44 45 -69 60 -136 9 -46 34 -135 56 -198 21 -63 41 -135 45 -160 20
-137 112 -336 203 -440 116 -132 239 -227 351 -271 19 -7 58 -32 87 -55 109
-88 264 -179 418 -245 65 -27 114 -56 143 -83 127 -119 294 -205 468 -241 79
-16 244 -22 319 -10 181 28 367 118 505 244 30 28 80 60 110 72 164 66 321
156 459 262 40 31 79 57 86 57 22 0 134 67 200 120 172 137 290 322 341 532
14 57 54 193 90 303 60 181 70 205 113 255 224 263 267 604 116 912 -62 126
-141 223 -247 304 -82 64 -95 90 -101 209 -6 102 -10 129 -28 200 -57 220
-170 373 -378 512 l-85 56 41 12 c69 20 114 54 134 101 16 36 27 45 69 60 59
21 115 72 130 119 7 21 25 42 45 55 64 40 113 110 120 170 1 14 20 44 42 66
38 40 53 76 53 133 0 14 16 58 36 96 26 52 35 80 33 110 -2 27 4 54 19 83 27
50 30 100 10 157 -11 32 -12 47 -2 75 16 48 10 114 -15 149 -24 34 -86 61
-139 61 -26 0 -44 7 -61 26 -35 36 -87 55 -163 58 -47 2 -74 8 -86 20 -27 23
-81 37 -119 30 -22 -4 -52 2 -98 21 -73 29 -135 32 -193 9 -29 -12 -36 -11
-67 8 -45 26 -96 25 -164 -1 -29 -12 -57 -19 -62 -16 -25 16 -106 6 -149 -19
-31 -18 -60 -26 -93 -26 -62 0 -101 -17 -161 -71 -33 -29 -57 -43 -72 -41 -79
11 -232 -159 -334 -369 -22 -46 -40 -90 -40 -98 0 -21 -19 0 -25 27 -6 35 -80
187 -116 238 -77 113 -191 204 -254 204 -24 0 -43 11 -75 41 -54 51 -95 69
-158 69 -34 0 -63 8 -93 24 -51 29 -92 36 -133 25 -19 -6 -40 -3 -65 7 -50 21
-103 31 -126 25z m-115 -172 c19 -5 65 -26 102 -48 37 -21 69 -36 72 -33 11
10 6 48 -9 68 -8 10 -15 22 -15 27 0 11 76 -29 149 -80 72 -49 81 -47 90 18
l6 41 73 -72 c83 -80 102 -82 95 -8 l-4 43 58 -60 c32 -33 73 -78 90 -100 17
-22 34 -37 37 -34 6 5 14 42 15 69 2 43 168 -200 212 -312 28 -72 33 -95 33
-173 1 -76 -3 -97 -23 -137 -26 -51 -78 -105 -127 -133 l-31 -17 -64 51 c-137
111 -326 231 -507 320 -167 83 -486 211 -497 199 -3 -2 26 -20 62 -38 120 -62
406 -232 503 -298 211 -145 410 -316 410 -354 0 -29 -47 -114 -87 -159 -71
-79 -183 -136 -318 -164 -89 -18 -243 -27 -283 -16 -27 8 -27 8 -4 15 26 9 47
42 32 51 -5 3 -30 8 -55 11 -134 13 -173 19 -183 29 -3 3 1 5 9 5 15 1 65 38
58 44 -2 2 -40 15 -84 30 -88 30 -180 76 -180 90 0 5 15 11 34 12 54 4 59 20
12 44 -61 31 -147 79 -165 93 -6 4 -20 14 -31 22 -19 13 -17 14 20 15 22 0 47
5 55 10 13 9 12 12 -5 25 -11 8 -24 18 -30 23 -5 4 -40 32 -77 62 -38 29 -68
54 -68 55 0 1 23 0 50 -2 28 -2 50 0 50 4 0 4 -18 28 -41 53 -59 65 -119 140
-119 150 0 4 15 4 33 0 31 -6 87 5 87 18 0 4 -20 20 -45 35 -50 32 -128 115
-120 128 3 4 27 7 53 6 58 -2 58 4 4 116 l-38 77 30 1 c17 1 73 1 124 1 50 1
92 5 92 10 0 5 -11 24 -26 43 -14 18 -21 35 -17 38 20 11 146 7 207 -7 89 -21
110 -8 64 41 l-22 23 33 -6 c17 -4 66 -17 109 -29 42 -12 80 -21 85 -18 18 10
4 44 -30 72 l-38 31 30 -6 c17 -3 46 -10 65 -15z m2159 -8 c-15 -21 -20 -37
-15 -55 l7 -27 43 26 c45 26 208 86 215 79 3 -2 -10 -20 -29 -38 -54 -57 -37
-68 62 -40 46 13 95 27 111 33 34 12 34 7 1 -31 -38 -46 -19 -53 72 -28 57 16
94 21 133 17 68 -7 78 -17 46 -47 -14 -13 -25 -26 -25 -30 0 -3 54 -6 120 -5
66 1 120 -3 120 -7 0 -5 -17 -34 -39 -66 -21 -31 -43 -72 -49 -89 l-11 -33 55
0 c29 0 54 -2 54 -5 0 -22 -48 -91 -94 -135 -36 -35 -53 -57 -46 -64 10 -10
70 -10 103 0 19 6 19 5 -3 -27 -13 -19 -52 -62 -87 -97 -35 -35 -60 -68 -57
-74 4 -6 23 -8 45 -5 22 3 39 4 39 2 0 -2 -40 -38 -90 -81 -98 -85 -103 -104
-26 -104 l41 -1 -33 -28 c-18 -15 -75 -50 -128 -76 -52 -27 -93 -53 -91 -59 2
-6 19 -13 38 -16 33 -5 32 -6 -47 -42 -44 -20 -102 -42 -128 -49 -40 -10 -45
-14 -34 -27 7 -8 26 -21 42 -27 l29 -12 -35 -12 c-19 -6 -84 -16 -143 -21 -60
-5 -113 -15 -119 -21 -8 -8 -1 -19 24 -41 l35 -30 -125 6 c-298 14 -476 97
-564 262 -14 27 -26 58 -26 70 0 13 29 49 78 95 96 93 136 124 276 221 61 43
116 81 121 85 24 19 264 158 381 223 121 66 146 82 92 61 -13 -5 -43 -17 -68
-26 -25 -10 -54 -21 -65 -26 -11 -4 -49 -20 -85 -35 -291 -118 -591 -286 -760
-424 -66 -54 -66 -54 -115 -20 -192 132 -159 418 79 695 27 30 51 54 53 51 3
-2 10 -21 17 -41 l13 -37 59 68 c32 37 72 81 87 98 l28 31 -2 -25 c-5 -87 9
-90 82 -17 35 35 74 66 86 69 19 5 21 3 16 -27 -4 -26 -1 -36 18 -48 21 -15
25 -15 69 18 41 30 155 95 166 95 3 0 -5 -13 -17 -29z m-853 -1436 c157 -38
338 -156 400 -260 83 -142 4 -282 -201 -360 -113 -42 -204 -55 -375 -51 -122
3 -171 8 -230 25 -200 59 -340 183 -340 303 0 39 47 122 92 164 89 82 237 162
334 180 16 3 47 9 69 13 61 11 173 5 251 -14z m-940 -100 c83 -9 91 -15 74
-55 -8 -18 -32 -56 -54 -84 -50 -64 -228 -242 -321 -321 -38 -33 -72 -62 -75
-65 -47 -50 -281 -210 -347 -238 -102 -43 -116 -30 -109 100 11 192 73 336
201 463 77 76 148 121 260 164 84 32 253 48 371 36z m1794 -35 c50 -10 124
-36 175 -60 73 -35 104 -57 170 -124 131 -132 194 -289 197 -492 1 -83 -4 -94
-40 -94 -154 1 -872 618 -872 749 0 15 9 22 38 26 20 4 44 8 52 9 49 9 207 1
280 -14z m-225 -565 c326 -79 556 -391 558 -755 0 -99 -3 -126 -27 -193 -46
-137 -130 -242 -231 -292 -142 -71 -356 -66 -517 12 -212 102 -384 322 -425
541 -9 48 -10 207 -1 252 41 223 193 393 393 439 55 13 189 11 250 -4z m-1283
-30 c130 -38 252 -147 305 -273 59 -139 66 -333 17 -487 -60 -186 -168 -334
-315 -431 -407 -267 -872 -11 -854 469 4 98 8 124 36 213 31 102 84 195 151
269 194 211 447 304 660 240z m2173 -364 c142 -82 253 -233 291 -399 50 -217
-11 -478 -148 -626 -56 -60 -87 -65 -135 -23 -56 49 -133 232 -157 372 -3 17
-10 55 -16 85 -32 167 -32 398 1 496 24 71 39 94 74 110 39 17 32 18 90 -15z
m-3298 -27 c41 -45 57 -125 58 -284 0 -240 -29 -421 -98 -600 -51 -136 -128
-211 -179 -176 -37 26 -99 109 -132 176 -56 113 -71 179 -70 325 0 116 3 139
28 210 35 103 83 180 155 253 55 56 128 112 161 125 24 8 53 -3 77 -29z m1785
-800 c255 -60 451 -254 485 -480 29 -191 -34 -374 -175 -505 -77 -73 -143
-111 -247 -146 -112 -36 -284 -38 -395 -4 -276 85 -455 298 -462 546 -4 168
48 293 176 421 81 81 197 145 306 169 81 17 235 17 312 -1z m1403 -203 c36
-21 68 -75 95 -160 30 -95 31 -105 35 -246 6 -207 -37 -342 -156 -490 -176
-218 -402 -327 -613 -293 -147 23 -204 93 -208 253 -4 192 94 435 248 615 235
274 466 398 599 321z m-2920 -132 c121 -33 294 -159 415 -304 101 -121 174
-303 184 -460 6 -86 -16 -187 -49 -231 -63 -83 -266 -89 -433 -13 -279 126
-466 425 -458 734 3 103 19 164 58 214 54 71 158 93 283 60z m1640 -1064 c204
-38 345 -119 345 -198 0 -98 -268 -297 -475 -353 -82 -22 -234 -26 -316 -9
-208 44 -469 233 -469 340 0 40 43 82 125 123 59 30 196 74 265 86 19 3 46 8
60 11 14 3 70 8 125 12 55 3 101 6 103 8 8 6 166 -6 237 -20z"/>
</g>
</svg>
